<?xml version="1.0" standalone="no"?>
<!DOCTYPE svg PUBLIC "-//W3C//DTD SVG 20010904//EN"
 "http://www.w3.org/TR/2001/REC-SVG-20010904/DTD/svg10.dtd">
<svg version="1.0" xmlns="http://www.w3.org/2000/svg"
 width="125.0px" height="175.0px" viewBox="0 0 445.000000 450.000000"
 preserveAspectRatio="xMidYMid meet">

<g transform="translate(0.000000,613.000000) scale(0.100000,-0.100000)"
fill="#000000" stroke="none">
<path d="M0 3063 l0 -3063 2225 0 2225 0 0 909 0 908 -92 7 c-88 6 -279 13
-923 36 -524 19 -615 23 -615 29 0 3 84 3 187 -1 1088 -38 1355 -49 1396 -53
l47 -6 0 449 0 449 -127 7 c-71 3 -245 9 -388 12 -143 4 -318 10 -390 14 -242
13 10 11 460 -5 231 -8 426 -15 433 -15 9 0 12 91 12 420 l0 420 -40 0 c-24 0
-40 5 -40 12 0 9 -3 9 -12 0 -7 -7 -20 -12 -30 -12 -16 0 -18 9 -18 73 l0 73
-53 22 c-29 12 -58 22 -65 22 -6 0 -12 7 -12 15 0 8 -7 15 -15 15 -8 0 -15 -7
-15 -15 0 -8 -4 -15 -10 -15 -5 0 -10 4 -10 9 0 16 -46 27 -89 22 -5 0 -11
-13 -13 -28 -3 -27 -5 -28 -58 -28 -49 0 -55 -2 -58 -23 -2 -12 -8 -22 -13
-22 -5 0 -9 -12 -9 -26 0 -25 -2 -26 -45 -22 -41 3 -45 1 -46 -19 -1 -13 -3
-27 -4 -33 -1 -5 -3 -31 -4 -56 l-1 -46 -55 4 -55 5 0 -64 c0 -38 -4 -63 -11
-63 -5 0 -7 5 -4 10 9 15 -35 28 -65 20 -16 -4 -24 -13 -22 -23 2 -10 -2 -25
-7 -35 -9 -14 -10 -12 -11 14 0 20 -5 31 -15 31 -8 0 -15 -7 -16 -16 0 -12 -3
-11 -9 4 -8 21 -15 12 -22 -29 -2 -11 -7 -18 -13 -15 -5 2 -9 7 -8 11 1 3 -8
32 -21 63 l-23 58 -11 -32 c-7 -21 -17 -31 -31 -31 -14 0 -21 -6 -21 -20 0
-21 -16 -26 -39 -11 -9 6 -31 4 -58 -4 l-43 -13 0 29 c0 22 -5 29 -19 29 -15
0 -21 8 -23 33 l-3 32 -92 3 c-77 3 -93 1 -93 -11 0 -10 -7 -13 -20 -10 -12 3
-20 0 -20 -7 0 -6 -7 -19 -16 -28 -15 -15 -16 -13 -9 16 4 21 3 32 -4 32 -6 0
-11 -13 -11 -30 0 -19 -5 -30 -14 -30 -8 0 -22 -7 -30 -16 -10 -9 -29 -14 -48
-12 -29 3 -33 6 -30 31 2 19 -1 27 -11 27 -13 0 -15 19 -16 108 0 168 -10 151
187 310 95 77 188 146 205 155 18 8 44 20 58 27 15 7 31 22 37 35 7 16 31 28
84 45 85 27 93 33 106 80 8 34 10 35 56 33 35 -1 51 -7 66 -25 19 -22 20 -23
35 -4 13 17 15 17 21 3 3 -9 3 -20 0 -25 -8 -14 21 -35 39 -28 9 3 15 18 15
36 0 35 27 53 42 27 10 -18 43 -23 52 -8 3 5 14 7 24 4 10 -2 24 3 32 12 17
21 -1 62 -34 75 -20 7 -25 18 -31 62 -4 29 -12 59 -18 66 -18 22 23 65 137
145 12 8 17 20 13 30 -5 13 -12 14 -39 6 -18 -6 -48 -14 -67 -19 -18 -5 -45
-20 -60 -34 -30 -29 -85 -44 -95 -27 -11 18 -51 13 -71 -9 -10 -11 -23 -20
-29 -20 -22 0 -86 -38 -126 -74 -33 -29 -48 -36 -83 -36 -27 -1 -56 -9 -82
-25 -30 -19 -48 -23 -76 -19 -34 6 -62 -4 -170 -62 -44 -23 -230 -84 -288 -95
-33 -6 -71 -22 -95 -39 -22 -17 -45 -30 -51 -30 -7 0 -20 -9 -30 -20 -10 -11
-31 -20 -46 -20 -16 0 -42 -12 -61 -28 -44 -37 -144 -88 -193 -98 -22 -4 -73
-8 -113 -9 l-74 -1 5 51 c6 63 26 135 43 156 8 8 14 26 14 38 0 12 14 35 31
51 37 33 36 60 -3 152 -19 44 -23 67 -18 95 4 23 11 37 19 35 7 -1 10 2 7 7
-4 5 3 25 15 45 l21 35 -31 92 c-17 50 -31 97 -31 103 0 7 -24 62 -54 122 -82
166 -154 227 -351 299 -278 101 -500 98 -651 -10 -73 -52 -146 -133 -173 -190
-35 -77 -71 -224 -71 -293 0 -85 59 -259 130 -382 62 -109 74 -154 65 -250
-14 -160 -24 -203 -55 -232 -15 -15 -33 -43 -39 -61 -7 -20 -22 -39 -36 -45
-14 -6 -39 -34 -56 -62 -28 -46 -51 -62 -62 -42 -2 4 -1 63 3 132 5 69 11 177
14 240 3 63 9 161 12 217 l7 102 -29 6 c-100 22 -130 31 -139 42 -15 19 -175
25 -182 7 -3 -8 -17 -14 -32 -14 l-27 0 -12 -177 c-7 -98 -15 -224 -19 -280
l-6 -103 -28 0 c-15 0 -30 4 -34 10 -3 5 -12 7 -20 3 -12 -4 -15 7 -14 63 1
38 4 103 8 144 l6 75 45 -2 45 -2 -42 10 c-53 13 -57 29 -5 24 l37 -5 -38 11
-38 11 5 107 c8 138 18 275 20 278 1 1 23 -4 49 -12 l47 -14 0 28 c0 27 -3 29
-50 35 -47 6 -50 8 -50 36 0 30 12 45 24 32 4 -4 11 -7 14 -7 29 -3 52 -19 53
-38 1 -20 2 -20 8 3 10 34 7 38 -45 51 -24 6 -44 15 -44 19 0 4 17 2 38 -6 44
-16 62 -17 62 -5 0 5 -23 15 -50 22 -47 12 -50 14 -50 46 l0 34 30 -16 c20
-10 30 -23 30 -38 0 -18 2 -19 10 -7 8 12 10 12 10 -5 0 -17 2 -17 10 -5 16
24 12 58 -7 63 -17 4 -17 5 0 6 13 1 17 9 16 34 -1 24 -3 26 -6 9 -3 -16 -9
-22 -20 -18 -8 3 -26 9 -39 12 -18 5 -24 13 -24 34 0 26 2 28 28 21 18 -5 27
-14 28 -30 2 -29 14 -40 14 -13 0 13 6 22 15 22 8 0 15 4 15 10 0 9 -77 35
-92 32 -5 -1 -8 3 -8 8 0 13 0 13 50 -5 24 -8 44 -14 45 -13 3 4 23 294 30
428 3 52 7 134 11 181 4 72 3 87 -10 92 -13 5 -16 23 -16 82 l0 75 35 0 c32 0
35 2 35 31 0 40 -16 70 -35 63 -15 -6 -95 34 -95 48 0 5 -4 7 -9 4 -5 -4 -20
-2 -33 3 -16 7 7 10 85 10 l107 1 0 30 c0 17 -4 30 -8 30 -5 0 -71 35 -148 77
l-139 77 -112 1 -113 2 0 -3064z m177 3021 c81 -43 93 -53 59 -47 -14 3 -26 9
-26 14 0 5 -6 6 -13 3 -7 -2 -22 5 -34 16 -12 11 -25 20 -28 20 -4 0 -13 7
-21 15 -23 22 -11 19 63 -21z m186 -96 c15 -7 27 -17 27 -21 0 -11 -101 -6
-131 6 l-24 10 30 7 c47 12 69 11 98 -2z m-195 -170 c-2 -7 7 -13 18 -13 26
-1 54 -22 54 -40 0 -11 -9 -10 -40 3 -39 17 -55 36 -44 53 8 13 14 11 12 -3z
m110 -66 c2 -7 -3 -12 -12 -12 -9 0 -16 7 -16 16 0 17 22 14 28 -4z m79 -354
c-3 -8 -6 -5 -6 6 -1 11 2 17 5 13 3 -3 4 -12 1 -19z m-203 -294 c3 -8 2 -12
-4 -9 -6 3 -10 10 -10 16 0 14 7 11 14 -7z m116 -4 c0 -5 -5 -10 -11 -10 -5 0
-7 5 -4 10 3 6 8 10 11 10 2 0 4 -4 4 -10z m80 -10 c0 -5 -4 -10 -10 -10 -5 0
-10 5 -10 10 0 6 5 10 10 10 6 0 10 -4 10 -10z m35 -9 c3 -5 1 -12 -5 -16 -5
-3 -10 1 -10 9 0 18 6 21 15 7z m-275 -31 c34 -11 78 -20 96 -20 31 0 34 -3
34 -30 0 -16 -4 -30 -9 -30 -16 0 -22 18 -9 23 7 2 10 7 7 11 -4 4 -13 1 -20
-7 -10 -11 -21 -12 -41 -5 -16 6 -26 14 -23 18 3 4 -5 6 -17 3 -17 -3 -19 -2
-9 5 10 7 10 11 1 17 -7 4 -16 2 -20 -5 -12 -20 -60 -4 -60 20 0 24 -6 24 70
0z m240 -1 c0 -5 -4 -9 -10 -9 -5 0 -10 7 -10 16 0 8 5 12 10 9 6 -3 10 -10
10 -16z m10 -35 c0 -2 -7 -4 -15 -4 -8 0 -15 4 -15 10 0 5 7 7 15 4 8 -4 15
-8 15 -10z m-202 -39 c46 -15 82 -29 79 -31 -7 -7 -179 46 -192 59 -11 10 -9
10 113 -28z m222 -22 c0 -15 6 -23 17 -23 9 0 14 -3 11 -6 -3 -3 -24 0 -47 7
-40 12 -47 22 -35 53 9 24 54 -1 54 -31z m-293 10 c13 -3 20 -10 16 -16 -3 -6
-1 -7 5 -3 7 4 37 -1 67 -10 50 -16 55 -20 55 -46 0 -15 -1 -28 -2 -28 -2 0
-36 11 -77 23 -53 17 -75 28 -77 41 -3 24 -14 34 -14 13 0 -10 -8 -17 -17 -17
-15 0 -16 2 -3 10 13 8 13 13 2 31 -13 20 -12 21 5 14 10 -4 28 -10 40 -12z
m323 -2 c0 -6 -4 -13 -10 -16 -5 -3 -10 1 -10 9 0 9 5 16 10 16 6 0 10 -4 10
-9z m-323 -87 c-5 -5 -57 13 -57 20 0 3 14 0 31 -6 16 -6 28 -12 26 -14z m111
-21 c17 -3 32 -10 32 -15 0 -11 -47 -2 -100 18 l-35 14 35 -5 c19 -4 50 -9 68
-12z m-82 -12 c32 -11 71 -22 87 -25 17 -4 27 -13 27 -24 -1 -40 -12 -42 -108
-14 -87 26 -92 28 -92 55 0 32 7 33 86 8z m221 -37 c-3 -3 -12 -4 -19 -1 -8 3
-5 6 6 6 11 1 17 -2 13 -5z m-197 -49 c58 -15 101 -35 74 -35 -16 1 -177 50
-183 56 -7 8 20 3 109 -21z m5 -35 c68 -15 70 -17 73 -49 2 -23 0 -32 -10 -29
-7 2 -50 12 -95 23 l-83 20 0 33 c0 30 2 33 23 26 12 -4 54 -15 92 -24z m-21
-74 l90 -22 -3 -60 c-1 -32 -4 -60 -6 -62 -8 -8 -175 34 -175 44 0 9 10 9 43
-1 23 -7 62 -15 87 -19 65 -10 30 8 -57 29 -72 17 -73 18 -73 50 l0 33 73 -19
c39 -10 79 -19 87 -19 29 1 -12 16 -87 35 -40 9 -73 21 -73 26 0 5 1 9 3 9 1
-1 42 -11 91 -24z m236 -61 c37 -14 22 -19 -29 -9 -17 4 -31 10 -31 15 0 12
18 10 60 -6z m-217 -86 l67 -12 0 -35 c0 -30 -2 -34 -22 -29 -13 3 -53 11 -90
18 l-68 12 0 35 c0 30 2 34 23 29 12 -3 52 -11 90 -18z m-21 -76 l78 -16 0
-49 c0 -58 6 -58 -147 -23 -19 4 -23 12 -23 41 0 27 4 35 14 31 24 -9 138 -29
142 -24 2 2 -32 11 -76 21 -44 9 -80 21 -80 26 0 13 1 13 92 -7z m14 -115 c61
-11 64 -13 60 -37 -2 -14 -5 -37 -5 -50 -1 -21 -5 -23 -33 -17 -75 13 -123 17
-102 7 11 -5 47 -12 78 -16 l58 -8 -8 -106 c-4 -58 -7 -114 -6 -125 1 -14 -4
-17 -21 -12 -12 3 -30 6 -39 6 -10 0 -18 5 -18 11 0 7 10 9 25 7 14 -3 25 -1
25 3 0 5 -11 9 -25 9 -22 0 -25 4 -25 36 l0 36 38 -6 c27 -5 33 -4 22 3 -8 6
-25 11 -37 11 -18 0 -21 5 -18 38 1 20 1 29 -2 20 -4 -18 -28 -23 -57 -12 -10
4 -16 18 -16 39 0 33 1 34 38 30 l37 -5 -37 11 c-37 11 -38 12 -38 60 0 55 0
55 80 38 27 -6 56 -9 63 -6 6 2 -21 10 -60 16 -40 7 -75 17 -79 22 -7 12 26
11 102 -3z m-60 -218 c8 0 14 -5 14 -11 0 -15 -53 -6 -58 10 -3 10 0 12 12 8
10 -4 24 -7 32 -7z m14 -67 c0 -32 -2 -35 -22 -29 -13 3 -26 6 -30 6 -5 0 -8
15 -8 33 0 32 2 33 30 29 27 -4 30 -8 30 -39z m-15 -53 c3 -5 1 -10 -4 -10 -6
0 -11 5 -11 10 0 6 2 10 4 10 3 0 8 -4 11 -10z m85 -40 c16 0 17 -4 9 -35 -6
-19 -7 -40 -4 -45 3 -6 -1 -10 -10 -10 -11 0 -15 5 -12 14 3 8 -2 16 -14 19
-14 4 -19 14 -19 37 0 25 3 31 16 26 9 -3 24 -6 34 -6z m145 -140 c-6 -18 21
-48 32 -36 3 3 1 6 -5 6 -7 0 -12 9 -12 21 0 11 4 18 9 15 5 -4 12 0 15 6 3 7
4 -31 3 -85 -3 -72 -8 -101 -18 -108 -9 -6 -15 -4 -17 6 -2 8 -10 15 -18 15
-8 0 -14 5 -14 10 0 6 -9 10 -20 10 -21 0 -26 16 -11 39 6 10 19 12 45 7 23
-4 36 -3 36 4 0 5 -17 10 -38 10 l-39 0 -2 49 c-1 49 -1 50 29 49 24 -1 29 -5
25 -18z m2397 -162 c-6 -60 -22 -73 -22 -17 0 43 5 59 19 59 4 0 5 -19 3 -42z
m-2378 -74 c4 -10 1 -14 -6 -12 -15 5 -23 28 -10 28 5 0 13 -7 16 -16z m2079
-761 c-46 -2 -120 -2 -165 0 -46 1 -9 3 82 3 91 0 128 -2 83 -3z m537 -10 c0
-8 -411 -6 -419 2 -2 3 91 5 207 5 117 0 212 -3 212 -7z m262 -10 c-40 -2
-103 -2 -140 0 -37 2 -4 3 73 3 77 0 107 -2 67 -3z m886 -100 c-10 -2 -26 -2
-35 0 -10 3 -2 5 17 5 19 0 27 -2 18 -5z m-999 -37 c-11 -11 -255 -76 -282
-75 -21 0 -1 9 58 24 50 13 110 31 135 39 42 13 98 21 89 12z m864 -3 c-7 -2
-19 -2 -25 0 -7 3 -2 5 12 5 14 0 19 -2 13 -5z m75 0 c-10 -2 -28 -2 -40 0
-13 2 -5 4 17 4 22 1 32 -1 23 -4z m-118 -144 c0 -14 -7 -19 -30 -19 -23 0
-30 5 -30 19 0 11 6 21 13 24 22 7 47 -5 47 -24z m-100 -9 c0 -5 -5 -10 -11
-10 -5 0 -7 5 -4 10 3 6 8 10 11 10 2 0 4 -4 4 -10z m-684 -21 c-27 -11 -59
-19 -70 -17 -15 3 -9 8 24 19 68 25 107 23 46 -2z m-215 -172 c12 -27 -3 -74
-27 -84 -10 -3 -12 -8 -5 -12 6 -4 -7 -7 -28 -8 -35 -2 -39 1 -44 25 -13 68
78 137 104 79z m775 -42 c-11 -8 -25 -15 -30 -15 -6 1 0 7 14 15 32 19 40 18
16 0z m-1336 -96 c13 -9 12 -10 -2 -5 -10 3 -20 1 -22 -3 -3 -5 -18 -6 -33 -3
l-28 6 30 7 c17 4 32 7 35 8 3 0 12 -4 20 -10z m-2110 -169 c68 -6 70 -7 20
-7 -30 -1 -95 2 -145 6 -89 8 -89 8 -20 8 39 0 104 -3 145 -7z m3533 -217
c-24 -2 -62 -2 -85 0 -24 2 -5 4 42 4 47 0 66 -2 43 -4z m215 -10 c-26 -2 -71
-2 -100 0 -29 2 -8 3 47 3 55 0 79 -1 53 -3z m-3748 -13 c13 -9 13 -10 0 -10
-8 0 -22 5 -30 10 -13 9 -13 10 0 10 8 0 22 -5 30 -10z m3990 -240 c0 -5 -4
-10 -10 -10 -5 0 -10 5 -10 10 0 6 5 10 10 10 6 0 10 -4 10 -10z m37 -27 c-14
-4 -15 -8 -7 -18 8 -10 5 -13 -15 -11 -15 0 -23 6 -21 13 3 6 -3 13 -12 16 -9
2 3 4 28 4 25 0 37 -2 27 -4z m136 -10 c-13 -2 -33 -2 -45 0 -13 2 -3 4 22 4
25 0 35 -2 23 -4z m-4315 -150 c-10 -2 -28 -2 -40 0 -13 2 -5 4 17 4 22 1 32
-1 23 -4z m3217 -118 c153 -4 427 -21 570 -34 l80 -8 -67 -1 c-57 -2 -355 12
-765 34 -74 4 -111 10 -107 16 4 7 31 8 73 4 36 -3 134 -8 216 -11z m1114 -61
c11 -10 -8 -12 -49 -7 -34 5 -40 8 -25 14 18 6 63 2 74 -7z"/>
<path d="M60 5040 c0 -5 5 -10 10 -10 6 0 10 5 10 10 0 6 -4 10 -10 10 -5 0
-10 -4 -10 -10z"/>
<path d="M343 4965 c0 -8 4 -15 9 -15 4 0 8 4 8 9 0 6 -4 12 -8 15 -5 3 -9 -1
-9 -9z"/>
<path d="M90 4919 c0 -5 5 -7 10 -4 6 3 10 8 10 11 0 2 -4 4 -10 4 -5 0 -10
-5 -10 -11z"/>
<path d="M110 4169 c0 -5 11 -9 25 -9 14 0 25 2 25 4 0 2 -11 6 -25 8 -14 3
-25 1 -25 -3z"/>
<path d="M305 3650 c-3 -5 1 -10 9 -10 9 0 16 5 16 10 0 6 -4 10 -9 10 -6 0
-13 -4 -16 -10z"/>
<path d="M3375 6120 c3 -5 8 -10 11 -10 2 0 4 5 4 10 0 6 -5 10 -11 10 -5 0
-7 -4 -4 -10z"/>
<path d="M3208 5304 c-5 -4 -8 -16 -8 -26 0 -23 -16 -24 -22 0 -8 31 -88 23
-88 -8 0 -13 61 -30 95 -27 20 1 29 -2 28 -10 -4 -17 13 -17 20 0 2 7 17 13
33 15 38 3 60 24 42 40 -18 14 -91 26 -100 16z"/>
<path d="M320 4492 c23 -15 87 -26 75 -14 -5 6 -28 13 -50 17 -27 4 -35 3 -25
-3z"/>
<path d="M345 4451 c21 -11 43 -17 48 -14 15 9 -6 21 -48 27 l-40 6 40 -19z"/>
<path d="M320 4380 c14 -4 34 -8 45 -8 l20 -1 -20 9 c-11 5 -31 8 -45 8 l-25
0 25 -8z"/>
<path d="M348 4343 c6 -2 18 -2 25 0 6 3 1 5 -13 5 -14 0 -19 -2 -12 -5z"/>
<path d="M347 4269 c7 -7 15 -10 18 -7 3 3 -2 9 -12 12 -14 6 -15 5 -6 -5z"/>
<path d="M318 4023 c6 -2 18 -2 25 0 6 3 1 5 -13 5 -14 0 -19 -2 -12 -5z"/>
<path d="M305 3920 c-18 -8 -17 -9 8 -9 15 -1 27 4 27 9 0 12 -8 12 -35 0z"/>
</g>
</svg>
